<?xml version="1.0" encoding="UTF-8" standalone="no"?>
<!-- Created with Inkscape (http://www.inkscape.org/) -->

<svg
   xmlns:dc="http://purl.org/dc/elements/1.1/"
   xmlns:cc="http://creativecommons.org/ns#"
   xmlns:rdf="http://www.w3.org/1999/02/22-rdf-syntax-ns#"
   xmlns:svg="http://www.w3.org/2000/svg"
   xmlns="http://www.w3.org/2000/svg"
   xmlns:sodipodi="http://sodipodi.sourceforge.net/DTD/sodipodi-0.dtd"
   xmlns:inkscape="http://www.inkscape.org/namespaces/inkscape"
   width="30in"
   height="17in"
   viewBox="0 0 762.00001 431.80001"
   version="1.1"
   id="svg4019"
   inkscape:version="0.92.4 (5da689c313, 2019-01-14)"
   sodipodi:docname="0.25wood.svg">
  <defs
     id="defs4013">
    <inkscape:path-effect
       effect="powerstroke"
       id="path-effect4862"
       is_visible="true"
       offset_points="0,0.13229166"
       sort_points="true"
       interpolator_type="CubicBezierJohan"
       interpolator_beta="0.2"
       start_linecap_type="zerowidth"
       linejoin_type="extrp_arc"
       miter_limit="4"
       end_linecap_type="zerowidth" />
    <inkscape:perspective
       sodipodi:type="inkscape:persp3d"
       inkscape:vp_x="0 : 215.9 : 1"
       inkscape:vp_y="0 : 1000 : 0"
       inkscape:vp_z="787.40001 : 215.9 : 1"
       inkscape:persp3d-origin="393.7 : 143.93334 : 1"
       id="perspective4612" />
  </defs>
  <sodipodi:namedview
     id="base"
     pagecolor="#ffffff"
     bordercolor="#666666"
     borderopacity="1.0"
     inkscape:pageopacity="0.0"
     inkscape:pageshadow="2"
     inkscape:zoom="0.3535534"
     inkscape:cx="1895.2754"
     inkscape:cy="638.55954"
     inkscape:document-units="mm"
     inkscape:current-layer="layer1"
     showgrid="false"
     units="in"
     inkscape:window-width="1920"
     inkscape:window-height="1051"
     inkscape:window-x="-9"
     inkscape:window-y="-9"
     inkscape:window-maximized="1"
     inkscape:lockguides="true" />
  <metadata
     id="metadata4016">
    <rdf:RDF>
      <cc:Work
         rdf:about="">
        <dc:format>image/svg+xml</dc:format>
        <dc:type
           rdf:resource="http://purl.org/dc/dcmitype/StillImage" />
        <dc:title />
      </cc:Work>
    </rdf:RDF>
  </metadata>
  <g
     inkscape:label="Layer 1"
     inkscape:groupmode="layer"
     id="layer1"
     transform="translate(0,134.80002)"
     style="opacity:0.99">
    <path
       inkscape:connector-curvature="0"
       style="fill:none;fill-opacity:1;stroke:#ff0000;stroke-width:0.35277778;stroke-miterlimit:4;stroke-dasharray:none;stroke-opacity:1"
       d="m 7.561814,-127.66219 h 6.499862 v 59.999952 h 6.49986 V -127.66219 H 127.56172 v 59.999952 h 6.49986 v -59.999952 h 6.49986 v 270.00007 h -6.49986 v 25 h 6.49986 v 4.9997 5.00022 H 7.561814 v -5.00022 -4.9997 h 6.499862 v -25 H 7.561814 Z"
       id="rect3821" />
    <rect
       style="fill:none;fill-opacity:1;stroke:#ff0000;stroke-width:0.35277778;stroke-miterlimit:4;stroke-dasharray:none;stroke-opacity:1"
       id="rect3825-1-2-8"
       width="60"
       height="6.5"
       x="-7.662168"
       y="14.061593"
       transform="matrix(0,1,1,0,0,0)" />
    <rect
       style="fill:none;fill-opacity:1;stroke:#ff0000;stroke-width:0.35277778;stroke-miterlimit:4;stroke-dasharray:none;stroke-opacity:1"
       id="rect3825-1-2-9"
       width="60"
       height="6.5"
       x="-7.6621604"
       y="127.56161"
       transform="matrix(0,1,1,0,0,0)" />
    <rect
       style="fill:none;fill-opacity:1;stroke:#ff0000;stroke-width:0.35277778;stroke-miterlimit:4;stroke-dasharray:none;stroke-opacity:1"
       id="rect3965-6"
       width="50"
       height="6.5"
       x="111.90705"
       y="87.561722"
       ry="2.8033131e-15"
       transform="matrix(0,1,1,0,0,0)" />
    <rect
       style="fill:none;fill-opacity:1;stroke:#ff0000;stroke-width:0.35277778;stroke-miterlimit:4;stroke-dasharray:none;stroke-opacity:1"
       id="rect3965-6-6"
       width="50"
       height="6.5"
       x="111.90705"
       y="54.061703"
       ry="2.8033133e-15"
       transform="matrix(0,1,1,0,0,0)" />
    <rect
       style="fill:none;fill-opacity:1;stroke:#ff0000;stroke-width:0.35277778;stroke-miterlimit:4;stroke-dasharray:none;stroke-opacity:1"
       id="rect3965-6-6-9"
       width="50"
       height="6.5"
       x="11.90705"
       y="54.061703"
       ry="2.8033138e-15"
       transform="matrix(0,1,1,0,0,0)" />
    <rect
       style="fill:none;fill-opacity:1;stroke:#ff0000;stroke-width:0.35277778;stroke-miterlimit:4;stroke-dasharray:none;stroke-opacity:1"
       id="rect3965-6-8"
       width="50"
       height="6.5"
       x="11.90705"
       y="87.561722"
       ry="2.8033133e-15"
       transform="matrix(0,1,1,0,0,0)" />
    <path
       style="fill:none;fill-opacity:1;stroke:#ff0000;stroke-width:0.35277778;stroke-miterlimit:4;stroke-dasharray:none;stroke-opacity:1"
       d="m 396.50253,135.99308 h 50.00006 v 6.49986 h -25.00003 v 6.49986 h 25.00003 v 6.49986 h 50.00003 v -6.49986 -6.49986 -6.49986 h 50.00006 v 6.49986 h -25.00003 v 6.49986 h 25.00003 v 6.49986 h 15.43111 73.6601 v 0.40463 19.02777 a 7.9999998,7.9999998 0 0 1 8.00002,8.00005 7.9999998,7.9999998 0 0 1 -8.00002,8.00002 H 613.62107 L 396.50253,161.98427 v -5.96038 -0.53123 -6.49986 -6.49986 z"
       id="rect3965-6-66"
       inkscape:connector-curvature="0" />
    <circle
       style="fill:none;fill-opacity:1;stroke:#ff0000;stroke-width:0.35277778;stroke-miterlimit:4;stroke-dasharray:none;stroke-opacity:1"
       id="path4831"
       cx="182.92496"
       cy="635.59381"
       r="4"
       transform="matrix(0,1,1,0,0,0)" />
    <path
       inkscape:connector-curvature="0"
       style="fill:none;fill-opacity:1;stroke:#ff0000;stroke-width:0.35277778;stroke-miterlimit:4;stroke-dasharray:none;stroke-opacity:1"
       d="m 629.57008,229.62213 h -50.00006 v -6.49986 h 25.00003 v -6.49986 h -25.00003 v -6.49986 h -50.00003 v 6.49986 6.49986 6.49986 h -50.00006 v -6.49986 h 25.00003 v -6.49986 h -25.00003 v -6.49986 h -15.43111 -73.6601 v -0.40463 -19.02777 a 7.9999999,7.9999999 0 0 1 -8.00003,-8.00005 7.9999999,7.9999999 0 0 1 8.00003,-8.00002 h 21.97282 l 217.11854,28.94086 v 5.96038 0.53123 6.49986 6.49986 z"
       id="rect3965-6-66-9" />
    <circle
       style="fill:none;fill-opacity:1;stroke:#ff0000;stroke-width:0.35277778;stroke-miterlimit:4;stroke-dasharray:none;stroke-opacity:1"
       id="path4831-7"
       cx="-182.69026"
       cy="-390.47888"
       r="4"
       transform="matrix(0,-1,-1,0,0,0)" />
    <path
       style="fill:none;fill-opacity:1;stroke:#ff0000;stroke-width:0.35277778;stroke-opacity:1;stroke-miterlimit:4;stroke-dasharray:none"
       d="m 364.14622,137.07629 h -30.00023 -29.99972 -21.70255 v 0.58859 12.41113 h -68.29825 v -0.53071 -5.43843 -0.53072 h 30.00026 v -0.53071 -5.43843 -0.53072 h -59.99998 v 0.53072 5.43843 0.53071 0.53072 5.43843 0.53071 0.53124 5.43791 0.53072 h 5.2e-4 v 94.00046 h -5.2e-4 v 0.53071 5.43843 0.53072 0.53072 5.43843 0.53071 0.53124 5.43791 0.53071 h 59.99998 v -0.53071 -5.43791 -0.53124 h -30.00026 v -0.53071 -5.43843 -0.53072 h 30.00026 38.29799 v 12.41165 0.58807 h 51.70227 30.00023 v -0.53071 -5.43791 -0.53124 h -30.00023 v -6.49986 h 30.00023 v -0.53072 -5.43843 -0.53071 h -30.00023 v -94.00046 h 30.00023 v -0.53072 -5.43791 -0.53124 h -30.00023 v -6.49986 h 30.00023 v -0.53071 -5.43843 z"
       id="rect4904"
       inkscape:connector-curvature="0" />
    <path
       style="fill:none;fill-opacity:1;stroke:#ff0000;stroke-width:0.35277778;stroke-opacity:1;stroke-miterlimit:4;stroke-dasharray:none"
       d="m 164.84108,197.7459 h -32.2791 v -0.53073 -5.43843 -0.5307 h 25 v -0.18656 -6.12727 -0.18603 h -50.00007 v 0.18603 6.12727 0.18656 0.5307 5.43843 0.53073 H 32.561844 v -0.53073 -5.43843 -0.5307 h 25.00002 v -0.18656 -6.12727 -0.18603 H 7.561814 v 0.18603 6.12727 0.18656 0.5307 5.43843 0.53073 0.53123 25.93742 0.53123 0.53126 5.4379 0.53123 0.18603 6.12727 0.18656 h 50.00005 v -0.18656 -6.12727 -0.18603 h -25.00002 v -0.53123 -5.4379 -0.53126 h 75.000066 v 0.53126 5.4379 0.53123 0.18603 6.12727 0.18656 h 50.00007 v -0.18656 -6.12727 -0.18603 h -25 v -0.53123 -5.4379 -0.53126 h 32.2791 v -0.53123 -25.93742 z"
       id="rect4964"
       inkscape:connector-curvature="0" />
    <path
       style="fill:none;fill-opacity:1;stroke:#ff0000;stroke-width:0.35277778;stroke-opacity:1;stroke-miterlimit:4;stroke-dasharray:none"
       d="m 695.48554,136.27096 h -60.00002 v -6.5004 h 29.9997 v -6.4999 H 245.48507 V 3.2707658 h 420.00016 v -6.4999004 h -29.9997 v -6.5004001 h 60.00001 v 6.5004001 6.4999004 119.9998942 6.4999 z"
       id="rect467-5"
       inkscape:connector-curvature="0" />
    <g
       id="g5531"
       transform="translate(-334.00223,-1.1244792)"
       style="fill:none;stroke:#ff0000;stroke-opacity:1;stroke-width:0.35277778;stroke-miterlimit:4;stroke-dasharray:none">
      <circle
         r="1.25"
         cy="57.749981"
         cx="601.25"
         id="path5185-1"
         style="fill:none;fill-opacity:1;stroke:#ff0000;stroke-width:0.35277778;stroke-opacity:1;stroke-miterlimit:4;stroke-dasharray:none" />
      <circle
         r="1.25"
         cy="57.749981"
         cx="608.75"
         id="path5185-1-9"
         style="fill:none;fill-opacity:1;stroke:#ff0000;stroke-width:0.35277778;stroke-opacity:1;stroke-miterlimit:4;stroke-dasharray:none" />
      <circle
         r="1.25"
         cy="57.749981"
         cx="616.25"
         id="path5185-1-9-6"
         style="fill:none;fill-opacity:1;stroke:#ff0000;stroke-width:0.35277778;stroke-opacity:1;stroke-miterlimit:4;stroke-dasharray:none" />
      <circle
         r="1.25"
         cy="57.749981"
         cx="631.25"
         id="path5185-1-9-6-7"
         style="fill:none;fill-opacity:1;stroke:#ff0000;stroke-width:0.35277778;stroke-opacity:1;stroke-miterlimit:4;stroke-dasharray:none" />
      <circle
         r="1.25"
         cy="57.749981"
         cx="623.75"
         id="path5185-1-9-6-3"
         style="fill:none;fill-opacity:1;stroke:#ff0000;stroke-width:0.35277778;stroke-opacity:1;stroke-miterlimit:4;stroke-dasharray:none" />
      <circle
         r="1.25"
         cy="57.749981"
         cx="638.84998"
         id="path5185-1-6"
         style="fill:none;fill-opacity:1;stroke:#ff0000;stroke-width:0.35277778;stroke-opacity:1;stroke-miterlimit:4;stroke-dasharray:none" />
      <circle
         r="1.25"
         cy="57.749981"
         cx="646.34998"
         id="path5185-1-9-8"
         style="fill:none;fill-opacity:1;stroke:#ff0000;stroke-width:0.35277778;stroke-opacity:1;stroke-miterlimit:4;stroke-dasharray:none" />
      <circle
         r="1.25"
         cy="57.749981"
         cx="653.84998"
         id="path5185-1-9-6-4"
         style="fill:none;fill-opacity:1;stroke:#ff0000;stroke-width:0.35277778;stroke-opacity:1;stroke-miterlimit:4;stroke-dasharray:none" />
      <circle
         r="1.25"
         cy="57.749981"
         cx="668.84998"
         id="path5185-1-9-6-7-5"
         style="fill:none;fill-opacity:1;stroke:#ff0000;stroke-width:0.35277778;stroke-opacity:1;stroke-miterlimit:4;stroke-dasharray:none" />
      <circle
         r="1.25"
         cy="57.749981"
         cx="661.34998"
         id="path5185-1-9-6-3-2"
         style="fill:none;fill-opacity:1;stroke:#ff0000;stroke-width:0.35277778;stroke-opacity:1;stroke-miterlimit:4;stroke-dasharray:none" />
      <circle
         r="1.25"
         cy="76.072899"
         cx="601.25"
         id="path5185-1-1"
         style="fill:none;fill-opacity:1;stroke:#ff0000;stroke-width:0.35277778;stroke-opacity:1;stroke-miterlimit:4;stroke-dasharray:none" />
      <circle
         r="1.25"
         cy="76.072899"
         cx="608.75"
         id="path5185-1-9-5"
         style="fill:none;fill-opacity:1;stroke:#ff0000;stroke-width:0.35277778;stroke-opacity:1;stroke-miterlimit:4;stroke-dasharray:none" />
      <circle
         r="1.25"
         cy="76.072899"
         cx="616.25"
         id="path5185-1-9-6-0"
         style="fill:none;fill-opacity:1;stroke:#ff0000;stroke-width:0.35277778;stroke-opacity:1;stroke-miterlimit:4;stroke-dasharray:none" />
      <circle
         r="1.25"
         cy="76.072899"
         cx="631.25"
         id="path5185-1-9-6-7-7"
         style="fill:none;fill-opacity:1;stroke:#ff0000;stroke-width:0.35277778;stroke-opacity:1;stroke-miterlimit:4;stroke-dasharray:none" />
      <circle
         r="1.25"
         cy="76.072899"
         cx="623.75"
         id="path5185-1-9-6-3-29"
         style="fill:none;fill-opacity:1;stroke:#ff0000;stroke-width:0.35277778;stroke-opacity:1;stroke-miterlimit:4;stroke-dasharray:none" />
      <circle
         r="1.25"
         cy="76.072899"
         cx="638.84998"
         id="path5185-1-6-4"
         style="fill:none;fill-opacity:1;stroke:#ff0000;stroke-width:0.35277778;stroke-opacity:1;stroke-miterlimit:4;stroke-dasharray:none" />
      <circle
         r="1.25"
         cy="76.072899"
         cx="646.34998"
         id="path5185-1-9-8-8"
         style="fill:none;fill-opacity:1;stroke:#ff0000;stroke-width:0.35277778;stroke-opacity:1;stroke-miterlimit:4;stroke-dasharray:none" />
      <circle
         r="1.25"
         cy="76.072899"
         cx="653.84998"
         id="path5185-1-9-6-4-6"
         style="fill:none;fill-opacity:1;stroke:#ff0000;stroke-width:0.35277778;stroke-opacity:1;stroke-miterlimit:4;stroke-dasharray:none" />
      <circle
         r="1.25"
         cy="76.072899"
         cx="668.84998"
         id="path5185-1-9-6-7-5-9"
         style="fill:none;fill-opacity:1;stroke:#ff0000;stroke-width:0.35277778;stroke-opacity:1;stroke-miterlimit:4;stroke-dasharray:none" />
      <circle
         r="1.25"
         cy="76.072899"
         cx="661.34998"
         id="path5185-1-9-6-3-2-5"
         style="fill:none;fill-opacity:1;stroke:#ff0000;stroke-width:0.35277778;stroke-opacity:1;stroke-miterlimit:4;stroke-dasharray:none" />
    </g>
    <circle
       style="fill:none;fill-opacity:1;stroke:#ff0000;stroke-width:0.35277778;stroke-miterlimit:4;stroke-dasharray:none;stroke-opacity:1"
       id="path5185-1-6-48"
       cx="449.74533"
       cy="56.628323"
       r="1.25" />
    <circle
       style="fill:none;fill-opacity:1;stroke:#ff0000;stroke-width:0.35277778;stroke-miterlimit:4;stroke-dasharray:none;stroke-opacity:1"
       id="path5185-1-9-6-7-5-6"
       cx="479.74533"
       cy="56.628323"
       r="1.25" />
    <circle
       style="fill:none;fill-opacity:1;stroke:#ff0000;stroke-width:0.35277778;stroke-miterlimit:4;stroke-dasharray:none;stroke-opacity:1"
       id="path5185-1-6-4-6"
       cx="449.74533"
       cy="74.951248"
       r="1.25" />
    <circle
       style="fill:none;fill-opacity:1;stroke:#ff0000;stroke-width:0.35277778;stroke-miterlimit:4;stroke-dasharray:none;stroke-opacity:1"
       id="path5185-1-9-6-7-5-9-6"
       cx="479.74533"
       cy="74.951248"
       r="1.25" />
    <rect
       style="fill:none;fill-opacity:1;stroke:#ff0000;stroke-width:0.35277778;stroke-miterlimit:4;stroke-dasharray:none;stroke-opacity:1"
       id="rect5168-5"
       width="63"
       height="200"
       x="31.999979"
       y="-614.03809"
       transform="rotate(90)" />
    <path
       style="fill:none;fill-opacity:1;stroke:#ff0000;stroke-width:1.33333335;stroke-miterlimit:4;stroke-dasharray:none;stroke-opacity:1"
       d="M 2161.4258 686.46875 L 2161.4258 711.03516 L 2199.2207 711.03516 L 2237.0176 711.03516 L 2237.0176 686.46875 L 2199.2207 686.46875 L 2161.4258 686.46875 z M 2161.4258 787.83594 L 2161.4258 812.40234 L 2199.2207 812.40234 L 2237.0176 812.40234 L 2237.0176 787.83594 L 2199.2207 787.83594 L 2161.4258 787.83594 z "
       transform="matrix(0.26458333,0,0,0.26458333,0,-134.80002)"
       id="rect5539" />
    <path
       style="fill:none;fill-opacity:1;stroke:#ff0000;stroke-width:1.33333335;stroke-miterlimit:4;stroke-dasharray:none;stroke-opacity:1"
       d="M 685.16406 443.32422 L 651.15234 480.23828 L 651.15234 492.1582 L 651.15234 492.25977 L 612.7793 492.25977 L 612.7793 516.82617 L 693.41016 632.40039 A 30.23622 30.23622 0 0 0 721.1543 650.64258 A 30.23622 30.23622 0 0 0 751.39062 620.40625 A 30.23622 30.23622 0 0 0 751.39062 620.4043 L 751.39453 620.4043 L 783.53906 536.67773 L 744.44727 492.1582 L 726.74219 492.1582 L 726.74219 467.5918 L 755.89648 467.5918 L 755.89648 443.32422 L 685.16406 443.32422 z "
       transform="matrix(0.26458333,0,0,0.26458333,0,-134.80002)"
       id="rect5604" />
    <circle
       style="fill:none;fill-opacity:1;stroke:#ff0000;stroke-width:0.35277778;stroke-miterlimit:4;stroke-dasharray:none;stroke-opacity:1"
       id="path5606"
       cx="190.80582"
       cy="29.349558"
       r="4" />
    <path
       inkscape:connector-curvature="0"
       style="opacity:0.98999999;fill:none;fill-opacity:1;stroke:#ff0000;stroke-width:0.35277778;stroke-miterlimit:4;stroke-dasharray:none;stroke-opacity:1"
       d="m 180.175,51.556813 -8.99893,9.76685 v 3.15381 0.0269 H 161.0232 v 6.49986 l 21.33358,30.579017 a 7.9999999,7.9999999 0 0 0 7.34064,4.82658 7.9999999,7.9999999 0 0 0 8.00002,-8.000034 7.9999999,7.9999999 0 0 0 0,-5.29e-4 h 0.001 l 8.50491,-22.152654 -10.34304,-11.77913 h -4.68447 v -6.49986 h 7.71374 v -6.42079 z"
       id="rect5604-3" />
    <circle
       style="opacity:0.98999999;fill:none;fill-opacity:1;stroke:#ff0000;stroke-width:0.35277778;stroke-miterlimit:4;stroke-dasharray:none;stroke-opacity:1"
       id="path5606-5"
       cx="189.69781"
       cy="98.410194"
       r="4" />
    <rect
       style="fill:none;fill-opacity:1;stroke:#ff0000;stroke-width:0.35277778;stroke-miterlimit:4;stroke-dasharray:none;stroke-opacity:1"
       id="rect4686"
       width="15.346054"
       height="76.119995"
       x="184.14627"
       y="165.87997" />
    <path
       inkscape:connector-curvature="0"
       style="fill:none;fill-opacity:1;stroke:#ff0000;stroke-width:0.35277778;stroke-miterlimit:4;stroke-dasharray:none;stroke-opacity:1"
       d="m 145.85314,-28.162321 h 206.05667 l 64.26741,-79.999759 h -90.32369 v -0.79634 -5.70353 h -30.00025 v -0.26561 -5.96915 -0.26562 h 30.00025 v -5.70352 -0.79634 h -60.00048 v 0.79634 17.90743 0.79634 H 205.8531 v -0.79634 -5.70353 h -29.99972 v -0.26561 -5.96915 -0.26562 h 29.99972 v -5.70352 -0.79634 h -59.99996 v 0.79634 17.90743 0.79634 0.31109 79.377579 z"
       id="rect4631-12" />
    <circle
       style="fill:none;fill-opacity:1;stroke:#ff0000;stroke-width:0.35277778;stroke-miterlimit:4;stroke-dasharray:none;stroke-opacity:1"
       id="path1244-1-3-4"
       cx="293.2876"
       cy="68.41024"
       r="8.5"
       transform="scale(1,-1)" />
    <rect
       style="fill:none;fill-opacity:1;stroke:#ff0000;stroke-width:0.35277778;stroke-miterlimit:4;stroke-dasharray:none;stroke-opacity:1"
       id="rect4584-0-5-6"
       width="9.8049536"
       height="6.3049541"
       x="288.7561"
       y="65.111488"
       rx="0.52055502"
       ry="1.3881203e-15"
       transform="scale(1,-1)" />
    <path
       style="fill:none;fill-opacity:1;stroke:#ff0000;stroke-width:0.35277778;stroke-miterlimit:4;stroke-dasharray:none;stroke-opacity:1"
       d="m 208.63119,-81.284425 v 6.332948 6.382038 6.333464 h 0.0403 v 6.321062 h 99.89054 v -6.334498 h -0.0129 v -6.320028 -6.356199 -6.355686 h -29.85606 v 6.355686 6.356199 h -29.85554 -20.32434 v -6.382038 h 20.32434 v -6.332948 z"
       id="rect4718"
       inkscape:connector-curvature="0" />
    <path
       style="fill:none;stroke:#ff0000;stroke-width:0.35277778;stroke-linecap:butt;stroke-linejoin:miter;stroke-miterlimit:4;stroke-dasharray:none;stroke-opacity:1"
       d="m 248.83753,-81.284425 29.85553,0.0031"
       id="path4841"
       inkscape:connector-curvature="0" />
    <path
       inkscape:connector-curvature="0"
       style="fill:none;fill-opacity:1;stroke:#ff0000;stroke-width:0.35277778;stroke-miterlimit:4;stroke-dasharray:none;stroke-opacity:1"
       d="m 655.32282,-118.69538 -206.05667,0 -64.26741,79.999758 90.32369,0 v 0.79634 5.70353 h 30.00025 v 0.26561 5.96915 0.26562 h -30.00025 v 5.70352 0.79634 l 60.00048,0 v -0.79634 -17.90743 -0.79634 h 59.99995 v 0.79634 5.70353 h 29.99972 v 0.26561 5.96915 0.26562 h -29.99972 v 5.70352 0.79634 l 59.99996,0 v -0.79634 l 0,-17.90743 v -0.79634 -0.31109 -79.377578 z"
       id="rect4631-12-9" />
    <circle
       style="fill:none;fill-opacity:1;stroke:#ff0000;stroke-width:0.35277778;stroke-miterlimit:4;stroke-dasharray:none;stroke-opacity:1"
       id="path1244-1-3-4-3"
       cx="-507.88837"
       cy="-78.447456"
       r="8.5"
       transform="scale(-1,1)" />
    <rect
       style="fill:none;fill-opacity:1;stroke:#ff0000;stroke-width:0.35277778;stroke-miterlimit:4;stroke-dasharray:none;stroke-opacity:1"
       id="rect4584-0-5-6-4"
       width="9.8049536"
       height="6.3049541"
       x="-512.41986"
       y="-81.746208"
       rx="0.52055502"
       ry="1.3881203e-15"
       transform="scale(-1,1)" />
    <path
       style="fill:none;fill-opacity:1;stroke:#ff0000;stroke-width:0.35277778;stroke-miterlimit:4;stroke-dasharray:none;stroke-opacity:1"
       d="m 592.54477,-65.573277 v -6.332948 -6.382038 -6.333464 h -0.0403 v -6.321062 l -99.89054,0 v 6.334498 h 0.0129 v 6.320028 6.356199 6.355686 l 29.85606,0 v -6.355686 -6.356199 h 29.85554 20.32434 v 6.382038 h -20.32434 v 6.332948 z"
       id="rect4718-7"
       inkscape:connector-curvature="0" />
    <path
       style="fill:none;stroke:#ff0000;stroke-width:0.35277778;stroke-linecap:butt;stroke-linejoin:miter;stroke-miterlimit:4;stroke-dasharray:none;stroke-opacity:1"
       d="m 552.33843,-65.573277 -29.85553,-0.0031"
       id="path4841-9"
       inkscape:connector-curvature="0" />
    <path
       style="opacity:0.98999999;fill:none;fill-opacity:1;stroke:#ff0000;stroke-width:0.35277778;stroke-miterlimit:4;stroke-dasharray:none;stroke-opacity:1"
       d="M 319.49223,165.87997 H 199.49232 v 76.11991 h 15.09417 v -61.126 h 90.01207 v 61.126 h 14.89367 z"
       id="rect5168-1"
       inkscape:connector-curvature="0" />
    <path
       style="fill:none;stroke:#ff0000;stroke-width:0.35277778;stroke-linecap:butt;stroke-linejoin:miter;stroke-opacity:1;stroke-miterlimit:4;stroke-dasharray:none"
       d="m 214.58649,241.99987 h 90.01208"
       id="path4939"
       inkscape:connector-curvature="0" />
    <path
       sodipodi:type="star"
       style="fill:none;fill-opacity:1;stroke:#ff0000;stroke-width:0.52488991;stroke-miterlimit:4;stroke-dasharray:none;stroke-opacity:1"
       id="path4945"
       sodipodi:sides="6"
       sodipodi:cx="46.933197"
       sodipodi:cy="-96.93161"
       sodipodi:r1="27.209665"
       sodipodi:r2="23.56426"
       sodipodi:arg1="0.52359878"
       sodipodi:arg2="1.0471976"
       inkscape:flatsided="true"
       inkscape:rounded="0"
       inkscape:randomized="0"
       d="m 70.497458,-83.326777 -23.564261,13.604832 -23.564261,-13.604833 0,-27.209662 23.564261,-13.60484 23.564261,13.60484 z"
       transform="matrix(0.65188322,0,0,0.69294089,22.809498,-26.325883)" />
    <path
       sodipodi:type="star"
       style="opacity:0.98999999;fill:none;fill-opacity:1;stroke:#ff0000;stroke-width:0.52488991;stroke-miterlimit:4;stroke-dasharray:none;stroke-opacity:1"
       id="path4945-3"
       sodipodi:sides="6"
       sodipodi:cx="94.061722"
       sodipodi:cy="-96.93161"
       sodipodi:r1="27.209665"
       sodipodi:r2="23.56426"
       sodipodi:arg1="0.52359878"
       sodipodi:arg2="1.0471976"
       inkscape:flatsided="true"
       inkscape:rounded="0"
       inkscape:randomized="0"
       d="m 117.62598,-83.326777 -23.564258,13.604832 -23.564262,-13.604833 0,-27.209662 23.564262,-13.60484 23.564258,13.60484 z"
       transform="matrix(0.65188322,0,0,0.69294089,33.392838,-26.325883)" />
    <path
       sodipodi:type="star"
       style="opacity:0.98999999;fill:none;fill-opacity:1;stroke:#ff0000;stroke-width:0.52488991;stroke-miterlimit:4;stroke-dasharray:none;stroke-opacity:1"
       id="path4945-5"
       sodipodi:sides="6"
       sodipodi:cx="70.497459"
       sodipodi:cy="-56.117111"
       sodipodi:r1="27.209665"
       sodipodi:r2="23.56426"
       sodipodi:arg1="0.52359878"
       sodipodi:arg2="1.0471976"
       inkscape:flatsided="true"
       inkscape:rounded="0"
       inkscape:randomized="0"
       d="m 94.061721,-42.512278 -23.564262,13.604832 -23.564261,-13.604833 0,-27.209665 23.564262,-13.604833 23.564261,13.604833 z"
       transform="matrix(0.65188322,0,0,0.69294089,28.101168,-21.034213)" />
    <path
       sodipodi:type="star"
       style="opacity:0.98999999;fill:none;fill-opacity:1;stroke:#ff0000;stroke-width:0.52488991;stroke-miterlimit:4;stroke-dasharray:none;stroke-opacity:1"
       id="path4945-1"
       sodipodi:sides="6"
       sodipodi:cx="94.061722"
       sodipodi:cy="-15.302615"
       sodipodi:r1="27.209665"
       sodipodi:r2="23.56426"
       sodipodi:arg1="0.52359878"
       sodipodi:arg2="1.0471976"
       inkscape:flatsided="true"
       inkscape:rounded="0"
       inkscape:randomized="0"
       d="M 117.62598,-1.6977824 94.061722,11.90705 70.49746,-1.6977826 l 0,-27.2096654 23.564262,-13.604832 23.564258,13.604832 z"
       transform="matrix(0.65188322,0,0,0.69294089,33.392838,-16.27171)" />
    <path
       sodipodi:type="star"
       style="opacity:0.98999999;fill:none;fill-opacity:1;stroke:#ff0000;stroke-width:0.52488991;stroke-miterlimit:4;stroke-dasharray:none;stroke-opacity:1"
       id="path4945-0"
       sodipodi:sides="6"
       sodipodi:cx="46.933197"
       sodipodi:cy="-15.302615"
       sodipodi:r1="27.209665"
       sodipodi:r2="23.56426"
       sodipodi:arg1="0.52359878"
       sodipodi:arg2="1.0471976"
       inkscape:flatsided="true"
       inkscape:rounded="0"
       inkscape:randomized="0"
       d="M 70.497458,-1.6977824 46.933197,11.90705 23.368936,-1.6977826 l 0,-27.2096654 23.564261,-13.604832 23.564261,13.604832 z"
       transform="matrix(0.65188322,0,0,0.69294089,22.809498,-16.27171)" />
  </g>
</svg>
